<?xml version="1.0" encoding="UTF-8" standalone="no"?>
<!-- Created with Inkscape (http://www.inkscape.org/) -->
<svg
   xmlns:svg="http://www.w3.org/2000/svg"
   xmlns="http://www.w3.org/2000/svg"
   version="1.0"
   width="357.73001"
   height="352.22"
   id="svg2">
  <defs
     id="defs4">
    <clipPath
       id="clipPath4444">
      <path
         d="M 0,841.8 L 595.2,841.8 L 595.2,0 L 0,0 L 0,841.8 z"
         id="path4446" />
    </clipPath>
    <clipPath
       id="clipPath4438">
      <path
         d="M -0.138,841.445 L 595.138,841.445 L 595.138,-0.445 L -0.138,-0.445 L -0.138,841.445 z"
         id="path4440" />
    </clipPath>
    <clipPath
       id="clipPath4426">
      <path
         d="M 0.004273,0.99654 L 0.996543,0.99654 L 0.996543,0.00385 L 0.004273,0.00385 L 0.004273,0.99654 z"
         id="path4428" />
    </clipPath>
    <clipPath
       id="clipPath4418">
      <path
         d="M -4.8389,-4.65774 L 1.28903,-4.65774 L 1.28903,3.98933 L -4.8389,3.98933 L -4.8389,-4.65774 z"
         id="path4420" />
    </clipPath>
    <clipPath
       id="clipPath4408">
      <path
         d="M 470.413,550.449 L 566.791,550.449 L 566.791,453.81 L 470.413,453.81 L 470.413,550.449 z"
         id="path4410" />
    </clipPath>
    <clipPath
       id="clipPath4400">
      <path
         d="M 0,0 L 595.2,0 L 595.2,841.8 L 0,841.8 L 0,0 z"
         id="path4402" />
    </clipPath>
    <clipPath
       id="clipPath4392">
      <path
         d="M 470.413,550.449 L 566.791,550.449 L 566.791,453.81 L 470.413,453.81 L 470.413,550.449 z"
         id="path4394" />
    </clipPath>
    <clipPath
       id="clipPath4382">
      <path
         d="M 0,841.8 L 595.2,841.8 L 595.2,0 L 0,0 L 0,841.8 z"
         id="path4384" />
    </clipPath>
    <clipPath
       id="clipPath4376">
      <path
         d="M -0.138,841.445 L 595.138,841.445 L 595.138,-0.445 L -0.138,-0.445 L -0.138,841.445 z"
         id="path4378" />
    </clipPath>
    <clipPath
       id="clipPath4364">
      <path
         d="M 0.003815,0.99753 L 0.997315,0.99753 L 0.997315,0.00415 L 0.003815,0.00415 L 0.003815,0.99753 z"
         id="path4366" />
    </clipPath>
    <clipPath
       id="clipPath4356">
      <path
         d="M -3.7131,-4.67601 L 2.42247,-4.67601 L 2.42247,4.00051 L -3.7131,4.00051 L -3.7131,-4.67601 z"
         id="path4358" />
    </clipPath>
    <clipPath
       id="clipPath4346">
      <path
         d="M 360.571,550.449 L 456.949,550.449 L 456.949,454.071 L 360.571,454.071 L 360.571,550.449 z"
         id="path4348" />
    </clipPath>
    <clipPath
       id="clipPath4338">
      <path
         d="M 0,0 L 595.2,0 L 595.2,841.8 L 0,841.8 L 0,0 z"
         id="path4340" />
    </clipPath>
    <clipPath
       id="clipPath4330">
      <path
         d="M 360.571,550.449 L 456.949,550.449 L 456.949,454.071 L 360.571,454.071 L 360.571,550.449 z"
         id="path4332" />
    </clipPath>
    <clipPath
       id="clipPath4320">
      <path
         d="M 0,841.8 L 595.2,841.8 L 595.2,0 L 0,0 L 0,841.8 z"
         id="path4322" />
    </clipPath>
    <clipPath
       id="clipPath4314">
      <path
         d="M -0.138,841.445 L 595.138,841.445 L 595.138,-0.445 L -0.138,-0.445 L -0.138,841.445 z"
         id="path4316" />
    </clipPath>
    <clipPath
       id="clipPath4302">
      <path
         d="M 0.004118,0.9969 L 0.996388,0.9969 L 0.996388,0 L 0.004118,0 L 0.004118,0.9969 z"
         id="path4304" />
    </clipPath>
    <clipPath
       id="clipPath4294">
      <path
         d="M -2.57727,-4.69674 L 3.55066,-4.69674 L 3.55066,4.01052 L -2.57727,4.01052 L -2.57727,-4.69674 z"
         id="path4296" />
    </clipPath>
    <clipPath
       id="clipPath4284">
      <path
         d="M 250.728,550.449 L 347.106,550.449 L 347.106,454.071 L 250.728,454.071 L 250.728,550.449 z"
         id="path4286" />
    </clipPath>
    <clipPath
       id="clipPath4276">
      <path
         d="M 0,0 L 595.2,0 L 595.2,841.8 L 0,841.8 L 0,0 z"
         id="path4278" />
    </clipPath>
    <clipPath
       id="clipPath4268">
      <path
         d="M 250.728,550.449 L 347.106,550.449 L 347.106,454.071 L 250.728,454.071 L 250.728,550.449 z"
         id="path4270" />
    </clipPath>
    <clipPath
       id="clipPath4258">
      <path
         d="M 0,841.8 L 595.2,841.8 L 595.2,0 L 0,0 L 0,841.8 z"
         id="path4260" />
    </clipPath>
    <clipPath
       id="clipPath4252">
      <path
         d="M -0.138,841.445 L 595.138,841.445 L 595.138,-0.445 L -0.138,-0.445 L -0.138,841.445 z"
         id="path4254" />
    </clipPath>
    <clipPath
       id="clipPath4240">
      <path
         d="M 0.001685,0.99807 L 0.997755,0.99807 L 0.997755,0.002 L 0.001685,0.002 L 0.001685,0.99807 z"
         id="path4242" />
    </clipPath>
    <clipPath
       id="clipPath4232">
      <path
         d="M -1.45438,-4.69087 L 4.69706,-4.69087 L 4.69706,4.0092 L -1.45438,4.0092 L -1.45438,-4.69087 z"
         id="path4234" />
    </clipPath>
    <clipPath
       id="clipPath4222">
      <path
         d="M 140.886,550.449 L 237.264,550.449 L 237.264,454.071 L 140.886,454.071 L 140.886,550.449 z"
         id="path4224" />
    </clipPath>
    <clipPath
       id="clipPath4214">
      <path
         d="M 0,0 L 595.2,0 L 595.2,841.8 L 0,841.8 L 0,0 z"
         id="path4216" />
    </clipPath>
    <clipPath
       id="clipPath4206">
      <path
         d="M 140.886,550.449 L 237.264,550.449 L 237.264,454.071 L 140.886,454.071 L 140.886,550.449 z"
         id="path4208" />
    </clipPath>
    <clipPath
       id="clipPath4196">
      <path
         d="M 0,841.8 L 595.2,841.8 L 595.2,0 L 0,0 L 0,841.8 z"
         id="path4198" />
    </clipPath>
    <clipPath
       id="clipPath4190">
      <path
         d="M -0.138,841.445 L 595.138,841.445 L 595.138,-0.445 L -0.138,-0.445 L -0.138,841.445 z"
         id="path4192" />
    </clipPath>
    <clipPath
       id="clipPath4178">
      <path
         d="M 0.003497,0.99691 L 0.996237,0.99691 L 0.996237,0.00292 L 0.003497,0.00292 L 0.003497,0.99691 z"
         id="path4180" />
    </clipPath>
    <clipPath
       id="clipPath4170">
      <path
         d="M -0.290965,-4.68015 L 5.92207,-4.68015 L 5.92207,4.00176 L -0.290965,4.00176 L -0.290965,-4.68015 z"
         id="path4172" />
    </clipPath>
    <clipPath
       id="clipPath4160">
      <path
         d="M 28.209,550.449 L 123.312,550.449 L 123.312,454.071 L 28.209,454.071 L 28.209,550.449 z"
         id="path4162" />
    </clipPath>
    <clipPath
       id="clipPath4152">
      <path
         d="M 0,0 L 595.2,0 L 595.2,841.8 L 0,841.8 L 0,0 z"
         id="path4154" />
    </clipPath>
    <clipPath
       id="clipPath4144">
      <path
         d="M 28.209,550.449 L 123.312,550.449 L 123.312,454.071 L 28.209,454.071 L 28.209,550.449 z"
         id="path4146" />
    </clipPath>
    <clipPath
       id="clipPath4134">
      <path
         d="M 0,841.8 L 595.2,841.8 L 595.2,0 L 0,0 L 0,841.8 z"
         id="path4136" />
    </clipPath>
    <clipPath
       id="clipPath4128">
      <path
         d="M -0.138,841.445 L 595.138,841.445 L 595.138,-0.445 L -0.138,-0.445 L -0.138,841.445 z"
         id="path4130" />
    </clipPath>
    <clipPath
       id="clipPath4078">
      <path
         d="M -4.2199,2.3542 L 1.8321,2.3542 L 1.8321,-6.5698 L -4.2199,-6.5698 L -4.2199,2.3542 z"
         id="path4080" />
    </clipPath>
    <clipPath
       id="clipPath4072">
      <path
         d="M -4.2213,2.3505 L 1.8315,2.3505 L 1.8315,-6.5745 L -4.2213,-6.5745 L -4.2213,2.3505 z"
         id="path4074" />
    </clipPath>
    <clipPath
       id="clipPath4066">
      <path
         d="M -1.195,2.0904 L 1.6963,2.0904 L 1.6963,1.0051 L -1.195,1.0051 L -1.195,2.0904 z"
         id="path4068" />
    </clipPath>
    <clipPath
       id="clipPath4054">
      <path
         d="M 0.59231,1.5621 C 0.59231,1.8304 0.80092,2.0479 1.0583,2.0479 C 1.3156,2.0479 1.5242,1.8304 1.5242,1.5621 C 1.5242,1.2938 1.3156,1.0763 1.0583,1.0763 C 0.80092,1.0763 0.59231,1.2938 0.59231,1.5621"
         id="path4056" />
    </clipPath>
    <clipPath
       id="clipPath4044">
      <path
         d="M -4.2199,2.3542 L 1.8321,2.3542 L 1.8321,-6.5698 L -4.2199,-6.5698 L -4.2199,2.3542 z"
         id="path4046" />
    </clipPath>
    <clipPath
       id="clipPath4038">
      <path
         d="M -4.2213,2.3505 L 1.8315,2.3505 L 1.8315,-6.5745 L -4.2213,-6.5745 L -4.2213,2.3505 z"
         id="path4040" />
    </clipPath>
    <clipPath
       id="clipPath4032">
      <path
         d="M -1.195,2.0904 L 1.6963,2.0904 L 1.6963,1.0051 L -1.195,1.0051 L -1.195,2.0904 z"
         id="path4034" />
    </clipPath>
    <clipPath
       id="clipPath4024">
      <path
         d="M -4.21994,-6.56979 L 1.83205,-6.56979 L 1.83205,2.35425 L -4.21994,2.35425 L -4.21994,-6.56979 z"
         id="path4026" />
    </clipPath>
    <clipPath
       id="clipPath4014">
      <path
         d="M 0,841.8 L 595.2,841.8 L 595.2,0 L 0,0 L 0,841.8 z"
         id="path4016" />
    </clipPath>
    <clipPath
       id="clipPath4008">
      <path
         d="M -0.138,841.445 L 595.138,841.445 L 595.138,-0.445 L -0.138,-0.445 L -0.138,841.445 z"
         id="path4010" />
    </clipPath>
    <clipPath
       id="clipPath4002">
      <path
         d="M 297.5,816.909 L 581.849,816.909 L 581.849,714.535 L 297.5,714.535 L 297.5,816.909 z"
         id="path4004" />
    </clipPath>
    <clipPath
       id="clipPath3994">
      <path
         d="M 0,0 L 595.2,0 L 595.2,841.8 L 0,841.8 L 0,0 z"
         id="path3996" />
    </clipPath>
    <clipPath
       id="clipPath3986">
      <path
         d="M 0,841.8 L 595.2,841.8 L 595.2,0 L 0,0 L 0,841.8 z"
         id="path3988" />
    </clipPath>
    <clipPath
       id="clipPath3980">
      <path
         d="M -0.138,841.445 L 595.138,841.445 L 595.138,-0.445 L -0.138,-0.445 L -0.138,841.445 z"
         id="path3982" />
    </clipPath>
    <clipPath
       id="clipPath3974">
      <path
         d="M 297.5,816.909 L 581.849,816.909 L 581.849,714.535 L 297.5,714.535 L 297.5,816.909 z"
         id="path3976" />
    </clipPath>
    <clipPath
       id="clipPath3848">
      <path
         d="M 0,841.8 L 595.2,841.8 L 595.2,0 L 0,0 L 0,841.8 z"
         id="path3850" />
    </clipPath>
    <clipPath
       id="clipPath3842">
      <path
         d="M -0.138,841.445 L 595.138,841.445 L 595.138,-0.445 L -0.138,-0.445 L -0.138,841.445 z"
         id="path3844" />
    </clipPath>
    <clipPath
       id="clipPath2900">
      <path
         d="M 0.53016,2.3766 L 1.56346,2.3766 L 1.56346,0.852 L 0.53016,0.852 L 0.53016,2.3766 z"
         id="path2902" />
    </clipPath>
    <clipPath
       id="clipPath2894">
      <path
         d="M 0.52992,2.376 L 1.56332,2.376 L 1.56332,0.8513 L 0.52992,0.8513 L 0.52992,2.376 z"
         id="path2896" />
    </clipPath>
    <clipPath
       id="clipPath2888">
      <path
         d="M 0.52992,2.109 L 1.56332,2.109 L 1.56332,1.0309 L 0.52992,1.0309 L 0.52992,2.109 z"
         id="path2890" />
    </clipPath>
    <clipPath
       id="clipPath2862">
      <path
         d="M 0.59228,1.563 C 0.59228,1.8315 0.80085,2.0491 1.0582,2.0491 C 1.1407,2.0491 1.2181,2.0268 1.2853,1.9876 C 1.3024,1.9776 1.301,1.9333 1.3167,1.9213 C 1.333,1.9088 1.3643,1.9089 1.3843,1.9065 C 1.4288,1.9009 1.4779,1.9029 1.4929,1.8823 C 1.5004,1.8719 1.5249,1.8732 1.5249,1.8582 C 1.5249,1.8439 1.5285,1.8136 1.5236,1.7864 C 1.5,1.7654 1.4912,1.7443 1.4982,1.7233 C 1.5084,1.6929 1.4513,1.6311 1.4555,1.5983 C 1.4582,1.577 1.4093,1.5443 1.4093,1.5222 C 1.4093,1.5008 1.3015,1.3683 1.2989,1.3477 C 1.2864,1.2471 1.4657,1.3083 1.4036,1.2367 C 1.3184,1.1386 1.1952,1.0769 1.0582,1.0769 C 0.80085,1.0769 0.59228,1.2945 0.59228,1.563"
         id="path2864" />
    </clipPath>
    <clipPath
       id="clipPath2844">
      <path
         d="M 0.53016,2.3766 L 1.56346,2.3766 L 1.56346,0.852 L 0.53016,0.852 L 0.53016,2.3766 z"
         id="path2846" />
    </clipPath>
    <clipPath
       id="clipPath2838">
      <path
         d="M 0.52992,2.376 L 1.56332,2.376 L 1.56332,0.8513 L 0.52992,0.8513 L 0.52992,2.376 z"
         id="path2840" />
    </clipPath>
    <clipPath
       id="clipPath2832">
      <path
         d="M 0.52992,2.109 L 1.56332,2.109 L 1.56332,1.0309 L 0.52992,1.0309 L 0.52992,2.109 z"
         id="path2834" />
    </clipPath>
    <clipPath
       id="clipPath2824">
      <path
         d="M 0.530163,0.852026 L 1.56341,0.852026 L 1.56341,2.3766 L 0.530163,2.3766 L 0.530163,0.852026 z"
         id="path2826" />
    </clipPath>
    <clipPath
       id="clipPath2814">
      <path
         d="M 0,841.8 L 595.2,841.8 L 595.2,0 L 0,0 L 0,841.8 z"
         id="path2816" />
    </clipPath>
    <clipPath
       id="clipPath2808">
      <path
         d="M -0.138,841.445 L 595.138,841.445 L 595.138,-0.445 L -0.138,-0.445 L -0.138,841.445 z"
         id="path2810" />
    </clipPath>
    <clipPath
       id="clipPath2802">
      <path
         d="M -0.138,694.043 L 595.138,694.043 L 595.138,98.768 L -0.138,98.768 L -0.138,694.043 z"
         id="path2804" />
    </clipPath>
    <clipPath
       id="clipPath2794">
      <path
         d="M 0,0 L 595.2,0 L 595.2,841.8 L 0,841.8 L 0,0 z"
         id="path2796" />
    </clipPath>
    <clipPath
       id="clipPath2786">
      <path
         d="M 0,841.8 L 595.2,841.8 L 595.2,0 L 0,0 L 0,841.8 z"
         id="path2788" />
    </clipPath>
    <clipPath
       id="clipPath2780">
      <path
         d="M -0.138,841.445 L 595.138,841.445 L 595.138,-0.445 L -0.138,-0.445 L -0.138,841.445 z"
         id="path2782" />
    </clipPath>
    <clipPath
       id="clipPath2774">
      <path
         d="M -0.138,694.043 L 595.138,694.043 L 595.138,98.768 L -0.138,98.768 L -0.138,694.043 z"
         id="path2776" />
    </clipPath>
    <clipPath
       id="clipPath2750">
      <path
         d="M 0,841.8 L 595.2,841.8 L 595.2,0 L 0,0 L 0,841.8 z"
         id="path2752" />
    </clipPath>
    <clipPath
       id="clipPath2744">
      <path
         d="M -0.138,841.445 L 595.138,841.445 L 595.138,-0.445 L -0.138,-0.445 L -0.138,841.445 z"
         id="path2746" />
    </clipPath>
    <clipPath
       id="clipPath2646">
      <path
         d="M 0,841.8 L 595.2,841.8 L 595.2,0 L 0,0 L 0,841.8 z"
         id="path2648" />
    </clipPath>
    <clipPath
       id="clipPath2640">
      <path
         d="M -0.138,841.445 L 595.138,841.445 L 595.138,-0.445 L -0.138,-0.445 L -0.138,841.445 z"
         id="path2642" />
    </clipPath>
    <clipPath
       id="clipPath2634">
      <path
         d="M -8.642,420.5 L 603.642,420.5 L 603.642,-8.949 L -8.642,-8.949 L -8.642,420.5 z"
         id="path2636" />
    </clipPath>
    <clipPath
       id="clipPath2432">
      <path
         d="M 0,841.8 L 595.2,841.8 L 595.2,0 L 0,0 L 0,841.8 z"
         id="path2434" />
    </clipPath>
    <clipPath
       id="clipPath2426">
      <path
         d="M -0.138,841.445 L 595.138,841.445 L 595.138,-0.445 L -0.138,-0.445 L -0.138,841.445 z"
         id="path2428" />
    </clipPath>
    <clipPath
       id="clipPath2420">
      <path
         d="M -8.642,849.949 L 603.642,849.949 L 603.642,420.5 L -8.642,420.5 L -8.642,849.949 z"
         id="path2422" />
    </clipPath>
  </defs>
  <g
     transform="translate(-2.9122852,-4.8235605)"
     id="layer1">
    <g
       transform="matrix(2.8169923,0,0,2.8169923,4.7092122,1.2356221)"
       id="g8060">
      <g
         transform="matrix(1.25,0,0,-1.25,-586.99521,1022.6371)"
         clip-path="url(#clipPath3980)"
         id="g3978">
        <g
           clip-path="url(#clipPath3986)"
           id="g3984">
          <g
             id="g3990">
            <g
               clip-path="url(#clipPath3994)"
               id="g3992">
              <g
                 id="g3998">
                <g
                   clip-path="url(#clipPath4002)"
                   id="g4000">
                  <g
                     clip-path="url(#clipPath4008)"
                     id="g4006">
                    <g
                       clip-path="url(#clipPath4014)"
                       id="g4012">
                      <g
                         transform="matrix(98.3479,0,0,94.3295,415.022,619.725)"
                         id="g4018">
                        <g
                           id="g4020">
                          <g
                             clip-path="url(#clipPath4024)"
                             id="g4022">
                            <g
                               id="g4028">
                              <g
                                 clip-path="url(#clipPath4032)"
                                 id="g4030">
                                <g
                                   clip-path="url(#clipPath4038)"
                                   id="g4036">
                                <g
                                   clip-path="url(#clipPath4044)"
                                   id="g4042">
                                <path
                                   d="M 0.59231,1.5621 C 0.59231,1.8304 0.80092,2.0479 1.0583,2.0479 C 1.1384,2.0479 1.2016,2.0283 1.2643,2.0006 C 1.2747,1.9947 1.2948,1.9847 1.3009,1.9528 C 1.303,1.9413 1.2995,1.9288 1.3214,1.9115 C 1.3621,1.9139 1.4517,1.9239 1.5335,1.8735 C 1.5327,1.852 1.5308,1.8145 1.5249,1.7847 C 1.523,1.7815 1.511,1.7693 1.508,1.7636 C 1.5077,1.7104 1.4778,1.6811 1.4777,1.6808 C 1.4676,1.6714 1.4553,1.6534 1.4557,1.6522 C 1.4558,1.6521 1.4644,1.6469 1.4723,1.6413 C 1.4665,1.6139 1.4547,1.5808 1.4283,1.5464 C 1.4007,1.5484 1.3954,1.5083 1.3787,1.4887 C 1.3357,1.4382 1.3085,1.3693 1.3101,1.3573 C 1.3285,1.216 1.4653,1.2913 1.3715,1.2024 C 1.2887,1.124 1.1788,1.0763 1.0583,1.0763 C 0.80092,1.0763 0.59231,1.2938 0.59231,1.5621 z"
                                   id="path4048"
                                   style="fill:#ffffff;fill-opacity:1;fill-rule:nonzero;stroke:#ffffff;stroke-width:0.028;stroke-linecap:butt;stroke-linejoin:miter;stroke-miterlimit:3.86400008;stroke-dasharray:none;stroke-opacity:1" />
                                </g>
                                </g>
                              </g>
                            </g>
                            <g
                               id="g4050">
                              <g
                                 clip-path="url(#clipPath4054)"
                                 id="g4052">
                                <path
                                   d="M 1.261,2.0163 C 1.261,2.0163 1.2041,2.0335 1.1522,2.0232 C 1.1242,2.0176 1.0991,1.9982 1.0802,1.9992 C 1.0561,2.0005 1.0439,2.0044 1.0439,2.0044 C 1.0439,2.0044 1.0414,1.9869 1.0517,1.9757 C 1.0612,1.9653 1.0967,1.958 1.0967,1.958 C 1.0746,1.9506 1.0509,1.9641 1.0242,1.964 C 0.99873,1.9639 0.95035,1.9547 0.92515,1.929 C 0.89994,1.9033 0.88156,1.8833 0.86597,1.8536 C 0.85039,1.824 0.83225,1.7989 0.80509,1.7694 C 0.7817,1.744 0.75891,1.7217 0.73407,1.7046 C 0.73332,1.7041 0.79464,1.7095 0.83762,1.7354 C 0.87853,1.76 0.91046,1.7827 0.91046,1.7827 C 0.91046,1.7827 0.88857,1.7437 0.85906,1.7203 C 0.82956,1.6968 0.81307,1.6876 0.7813,1.6585 C 0.7494,1.6293 0.71729,1.5955 0.70578,1.5499 C 0.70575,1.5498 0.70189,1.5354 0.70324,1.5221 C 0.70458,1.5089 0.71143,1.4959 0.71143,1.4959 L 0.96175,1.4857 L 1.3388,1.4242 L 1.3135,1.31 L 1.3699,1.2033 L 1.0239,1.1424 L 0.63735,1.1237 L 0.37408,1.8234 L 0.57166,2.0294 L 0.81644,2.1524 L 1.0553,2.1278 L 1.261,2.0163"
                                   id="path4058"
                                   style="fill:#176fc1;fill-opacity:1;fill-rule:nonzero;stroke:none" />
                                <path
                                   d="M 0.55016,1.1589 C 0.55016,1.1589 0.63471,1.1844 0.64702,1.2037 C 0.64702,1.2037 0.90827,1.2037 0.90838,1.2038 C 0.90838,1.2037 0.91947,1.2581 0.91936,1.2581 C 0.91964,1.2581 0.95227,1.1986 1.0626,1.2003 C 1.2063,1.2025 1.2516,1.2839 1.2512,1.2844 C 1.2946,1.1651 1.3725,1.2529 1.3725,1.2529 C 1.4003,1.1727 1.4898,1.2092 1.4898,1.2092 L 1.5091,1.0885 L 1.4006,0.86146 L 0.78826,0.79219 L 0.62854,0.93299 C 0.62854,0.93299 0.5545,1.0659 0.55559,1.0749 C 0.55667,1.084 0.55016,1.1589 0.55016,1.1589"
                                   id="path4060"
                                   style="fill:#176fc1;fill-opacity:1;fill-rule:nonzero;stroke:none" />
                              </g>
                            </g>
                            <g
                               id="g4062">
                              <g
                                 clip-path="url(#clipPath4066)"
                                 id="g4064">
                                <g
                                   clip-path="url(#clipPath4072)"
                                   id="g4070">
                                <g
                                   clip-path="url(#clipPath4078)"
                                   id="g4076">
                                <path
                                   d="M 0.96489,1.5675 C 0.96489,1.5675 0.99829,1.6871 1.0653,1.7583 L 1.0411,1.7652 C 1.0411,1.7652 0.93749,1.6271 0.91902,1.5647 L 0.96489,1.5675 z"
                                   id="path4082"
                                   style="fill:#ed1c24;fill-opacity:1;fill-rule:nonzero;stroke:#ed1c24;stroke-width:0.003;stroke-linecap:butt;stroke-linejoin:miter;stroke-miterlimit:3.86400008;stroke-dasharray:none;stroke-opacity:1" />
                                <path
                                   d="M 1.2046,1.8612 C 1.2046,1.8612 1.229,1.8941 1.2619,1.9009 C 1.2619,1.9009 1.2776,1.8922 1.2814,1.8801 C 1.2814,1.8801 1.2808,1.8811 1.2905,1.8779 L 1.29,1.8745 C 1.29,1.8745 1.2458,1.8751 1.2046,1.8612 z"
                                   id="path4084"
                                   style="fill:#ed1c24;fill-opacity:1;fill-rule:nonzero;stroke:#ed1c24;stroke-width:0.003;stroke-linecap:butt;stroke-linejoin:miter;stroke-miterlimit:3.86400008;stroke-dasharray:none;stroke-opacity:1" />
                                <path
                                   d="M 1.358,1.8001 C 1.358,1.8001 1.369,1.7799 1.4002,1.7643 C 1.4002,1.7643 1.4275,1.7805 1.4499,1.7827 L 1.465,1.8199 C 1.465,1.8199 1.4402,1.8878 1.4256,1.8938 C 1.4256,1.8938 1.3803,1.9105 1.3214,1.8829 C 1.3214,1.8829 1.2882,1.9185 1.2682,1.9274 C 1.2682,1.9274 1.1741,1.8988 1.1241,1.8426 C 1.1241,1.8426 1.1423,1.8306 1.1494,1.8219 L 1.121,1.8107 C 1.121,1.8107 1.0484,1.8639 0.98633,1.8329 C 0.98633,1.8329 1.0058,1.8815 1.0812,1.8623 L 1.1011,1.8568 C 1.1011,1.8568 1.2005,1.9264 1.2698,1.9332 C 1.2698,1.9332 1.3001,1.9238 1.3212,1.91 C 1.3212,1.91 1.3761,1.9166 1.4433,1.9069 C 1.4433,1.9069 1.4923,1.897 1.5325,1.8724 C 1.5325,1.8724 1.5295,1.8134 1.5236,1.7853 L 1.5067,1.7646 C 1.5067,1.7646 1.5092,1.7197 1.4789,1.6844 C 1.4789,1.6844 1.4801,1.7194 1.4557,1.7701 C 1.4557,1.7701 1.4319,1.7716 1.4057,1.7539 C 1.4057,1.7539 1.3842,1.7195 1.3835,1.7067 C 1.3835,1.7067 1.3559,1.7511 1.3568,1.7726 C 1.3568,1.7726 1.3102,1.7635 1.2741,1.7232 C 1.2409,1.6862 1.2439,1.6459 1.2439,1.6459 C 1.2735,1.6629 1.3278,1.6713 1.3278,1.6713 C 1.3278,1.6713 1.3257,1.6912 1.3417,1.7271 C 1.3417,1.7271 1.3484,1.7108 1.3693,1.6713 C 1.3693,1.6713 1.4011,1.6675 1.4245,1.6602 C 1.4245,1.6602 1.4316,1.6792 1.4418,1.7144 C 1.4418,1.7144 1.4489,1.7077 1.4544,1.6515 L 1.4706,1.6406 C 1.4706,1.6406 1.4594,1.5837 1.4272,1.5474 C 1.4272,1.5474 1.3576,1.5491 1.3172,1.5605 L 1.3167,1.5659 C 1.3167,1.5659 1.4018,1.5576 1.4214,1.5617 C 1.4214,1.5617 1.4397,1.5974 1.4453,1.6307 C 1.4453,1.6307 1.3762,1.6589 1.3269,1.654 C 1.3269,1.654 1.2833,1.6482 1.2418,1.6365 C 1.2418,1.6365 1.2262,1.6729 1.2642,1.7317 C 1.3022,1.7904 1.358,1.8001 1.358,1.8001 z M 1.517,1.7894 C 1.521,1.8252 1.5163,1.8472 1.5163,1.8472 L 1.4721,1.8171 L 1.4641,1.7784 C 1.4671,1.7751 1.4755,1.7525 1.4755,1.7525 C 1.4988,1.7624 1.517,1.7894 1.517,1.7894"
                                   id="path4086"
                                   style="fill:#ed1c24;fill-opacity:1;fill-rule:nonzero;stroke:none" />
                                <path
                                   d="M 1.358,1.8001 C 1.358,1.8001 1.369,1.7799 1.4002,1.7643 C 1.4002,1.7643 1.4275,1.7805 1.4499,1.7827 L 1.465,1.8199 C 1.465,1.8199 1.4402,1.8878 1.4256,1.8938 C 1.4256,1.8938 1.3803,1.9105 1.3214,1.8829 C 1.3214,1.8829 1.2882,1.9185 1.2682,1.9274 C 1.2682,1.9274 1.1741,1.8988 1.1241,1.8426 C 1.1241,1.8426 1.1423,1.8306 1.1494,1.8219 L 1.121,1.8107 C 1.121,1.8107 1.0484,1.8639 0.98633,1.8329 C 0.98633,1.8329 1.0058,1.8815 1.0812,1.8623 L 1.1011,1.8568 C 1.1011,1.8568 1.2005,1.9264 1.2698,1.9332 C 1.2698,1.9332 1.3001,1.9238 1.3212,1.91 C 1.3212,1.91 1.3761,1.9166 1.4433,1.9069 C 1.4433,1.9069 1.4923,1.897 1.5325,1.8724 C 1.5325,1.8724 1.5295,1.8134 1.5236,1.7853 L 1.5067,1.7646 C 1.5067,1.7646 1.5092,1.7197 1.4789,1.6844 C 1.4789,1.6844 1.4801,1.7194 1.4557,1.7701 C 1.4557,1.7701 1.4319,1.7716 1.4057,1.7539 C 1.4057,1.7539 1.3842,1.7195 1.3835,1.7067 C 1.3835,1.7067 1.3559,1.7511 1.3568,1.7726 C 1.3568,1.7726 1.3102,1.7635 1.2741,1.7232 C 1.2409,1.6862 1.2439,1.6459 1.2439,1.6459 C 1.2735,1.6629 1.3278,1.6713 1.3278,1.6713 C 1.3278,1.6713 1.3257,1.6912 1.3417,1.7271 C 1.3417,1.7271 1.3484,1.7108 1.3693,1.6713 C 1.3693,1.6713 1.4011,1.6675 1.4245,1.6602 C 1.4245,1.6602 1.4316,1.6792 1.4418,1.7144 C 1.4418,1.7144 1.4489,1.7077 1.4544,1.6515 L 1.4706,1.6406 C 1.4706,1.6406 1.4594,1.5837 1.4272,1.5474 C 1.4272,1.5474 1.3576,1.5491 1.3172,1.5605 L 1.3167,1.5659 C 1.3167,1.5659 1.4018,1.5576 1.4214,1.5617 C 1.4214,1.5617 1.4397,1.5974 1.4453,1.6307 C 1.4453,1.6307 1.3762,1.6589 1.3269,1.654 C 1.3269,1.654 1.2833,1.6482 1.2418,1.6365 C 1.2418,1.6365 1.2262,1.6729 1.2642,1.7317 C 1.3022,1.7904 1.358,1.8001 1.358,1.8001 z M 1.517,1.7894 C 1.521,1.8252 1.5163,1.8472 1.5163,1.8472 L 1.4721,1.8171 L 1.4641,1.7784 C 1.4671,1.7751 1.4755,1.7525 1.4755,1.7525 C 1.4988,1.7624 1.517,1.7894 1.517,1.7894 z"
                                   id="path4088"
                                   style="fill:none;stroke:#ed1c24;stroke-width:0.003;stroke-linecap:butt;stroke-linejoin:miter;stroke-miterlimit:3.86400008;stroke-dasharray:none;stroke-opacity:1" />
                                <path
                                   d="M 1.1668,1.9343 C 1.1668,1.9343 1.1402,1.9302 1.0513,1.9464 C 1.0513,1.9464 0.95677,1.9717 0.89397,1.8637 C 0.83118,1.7556 0.78202,1.7283 0.78202,1.7283 C 0.78202,1.7283 0.88178,1.7677 0.93814,1.8559 C 0.99451,1.9441 1.0783,1.9329 1.0783,1.9329 C 1.0783,1.9329 1.1472,1.9215 1.1668,1.9343 z"
                                   id="path4090"
                                   style="fill:#ed1c24;fill-opacity:1;fill-rule:nonzero;stroke:#ed1c24;stroke-width:0.003;stroke-linecap:butt;stroke-linejoin:miter;stroke-miterlimit:3.86400008;stroke-dasharray:none;stroke-opacity:1" />
                                <path
                                   d="M 0.94576,1.7944 C 0.94576,1.7944 0.92893,1.6857 0.83853,1.64 C 0.74812,1.5943 0.74062,1.5638 0.71725,1.5354 C 0.71725,1.5354 0.7292,1.6057 0.83025,1.6773 C 0.9313,1.7489 0.94576,1.7944 0.94576,1.7944 z"
                                   id="path4092"
                                   style="fill:#ed1c24;fill-opacity:1;fill-rule:nonzero;stroke:#ed1c24;stroke-width:0.003;stroke-linecap:butt;stroke-linejoin:miter;stroke-miterlimit:3.86400008;stroke-dasharray:none;stroke-opacity:1" />
                                <path
                                   d="M 1.2996,1.946 C 1.2996,1.946 1.2698,1.983 1.2183,1.9893 C 1.1668,1.9956 1.1077,1.9755 1.1077,1.9755 C 1.1077,1.9755 1.081,1.9707 1.0581,1.9896 C 1.0581,1.9896 1.0856,1.9753 1.1297,1.9994 C 1.1297,1.9994 1.1711,2.0226 1.2376,2.0083 C 1.304,1.9939 1.2996,1.946 1.2996,1.946 z"
                                   id="path4094"
                                   style="fill:#ed1c24;fill-opacity:1;fill-rule:nonzero;stroke:#ed1c24;stroke-width:0.003;stroke-linecap:butt;stroke-linejoin:miter;stroke-miterlimit:3.86400008;stroke-dasharray:none;stroke-opacity:1" />
                                <path
                                   d="M 0.92067,1.1389 L 0.89774,1.1482 L 0.9247,1.1858 L 0.90663,1.1931 L 0.87092,1.1432 L 0.91192,1.1267 L 0.92067,1.1389"
                                   id="path4096"
                                   style="fill:#ffffff;fill-opacity:1;fill-rule:nonzero;stroke:none" />
                                <path
                                   d="M 0.99383,1.1655 L 0.97467,1.1693 L 0.94944,1.1137 L 0.96859,1.1099 L 0.99383,1.1655"
                                   id="path4098"
                                   style="fill:#ffffff;fill-opacity:1;fill-rule:nonzero;stroke:none" />
                                <path
                                   d="M 1.0515,1.159 C 1.0322,1.1593 1.0182,1.1466 1.0142,1.1289 C 1.0104,1.1121 1.0184,1.0985 1.0376,1.0982 C 1.0568,1.0979 1.071,1.1111 1.0748,1.1279 C 1.0788,1.1456 1.0708,1.1587 1.0515,1.159 z M 1.0484,1.1456 C 1.057,1.1455 1.0553,1.1339 1.054,1.1282 C 1.0527,1.1225 1.0496,1.1115 1.0407,1.1117 C 1.0318,1.1118 1.0337,1.1228 1.035,1.1285 C 1.0363,1.1342 1.0398,1.1458 1.0484,1.1456"
                                   id="path4100"
                                   style="fill:#ffffff;fill-opacity:1;fill-rule:evenodd;stroke:none" />
                                <path
                                   d="M 1.1631,1.1125 L 1.1636,1.173 L 1.1481,1.1701 L 1.1479,1.1532 L 1.1492,1.1367 L 1.149,1.1365 L 1.1284,1.1663 L 1.1103,1.1629 L 1.1099,1.1025 L 1.1254,1.1054 L 1.1256,1.1336 C 1.1256,1.1377 1.1253,1.1398 1.1244,1.1435 L 1.1242,1.1442 L 1.1244,1.1444 L 1.1299,1.1345 L 1.1475,1.1096 L 1.1631,1.1125"
                                   id="path4102"
                                   style="fill:#ffffff;fill-opacity:1;fill-rule:nonzero;stroke:none" />
                                <path
                                   d="M 1.1969,1.1406 C 1.2031,1.1291 1.2152,1.1286 1.2273,1.1337 C 1.2394,1.1388 1.2519,1.1504 1.2485,1.1645 C 1.247,1.1709 1.2427,1.1752 1.2363,1.1758 C 1.2306,1.1764 1.2245,1.1748 1.2187,1.1736 C 1.2164,1.1732 1.2121,1.172 1.2113,1.1751 C 1.2106,1.1782 1.2138,1.1803 1.2162,1.1813 C 1.2206,1.1832 1.2242,1.183 1.227,1.1794 L 1.2406,1.1901 C 1.2346,1.1988 1.2239,1.1989 1.2138,1.1946 C 1.2081,1.1922 1.2021,1.1885 1.1982,1.1831 C 1.1944,1.1778 1.1929,1.171 1.1943,1.1652 C 1.1976,1.1513 1.2113,1.1537 1.2227,1.1562 C 1.2255,1.1568 1.2301,1.158 1.231,1.1544 C 1.2317,1.1512 1.2273,1.1489 1.225,1.1479 C 1.2198,1.1457 1.2155,1.146 1.2127,1.1506 L 1.1969,1.1406"
                                   id="path4104"
                                   style="fill:#ffffff;fill-opacity:1;fill-rule:nonzero;stroke:none" />
                                <path
                                   d="M 0.72599,1.495 L 0.67065,1.4151 L 0.80211,1.4152 L 0.60437,1.2308 L 0.87475,1.2308 L 0.92856,1.3124 L 1.0087,1.3214 L 0.9987,1.4067 L 0.96667,1.4571 L 1.0053,1.495 L 0.72599,1.495 z"
                                   id="path4106"
                                   style="fill:#231f20;fill-opacity:1;fill-rule:nonzero;stroke:#231f20;stroke-width:0.036;stroke-linecap:butt;stroke-linejoin:miter;stroke-miterlimit:3.86400008;stroke-dasharray:none;stroke-opacity:1" />
                                <path
                                   d="M 0.91759,1.2508 C 0.95099,1.2357 1.0162,1.2222 1.0567,1.2222 C 1.1263,1.2222 1.2024,1.2578 1.2145,1.3209 C 1.2231,1.3657 1.1915,1.3874 1.1437,1.3966 L 1.1181,1.4015 C 1.1095,1.4032 1.0873,1.4046 1.0892,1.4144 C 1.0913,1.4253 1.1148,1.4285 1.1251,1.4285 C 1.1502,1.4285 1.2016,1.3955 1.2195,1.3842 L 1.2425,1.4361 L 1.2657,1.4717 C 1.2371,1.4875 1.1728,1.499 1.1361,1.499 C 1.0661,1.499 0.98175,1.4642 0.96968,1.4015 C 0.96172,1.3601 1.0039,1.338 1.0483,1.3314 L 1.0711,1.3279 C 1.0814,1.3261 1.0966,1.3251 1.0943,1.3131 C 1.092,1.3012 1.0729,1.2974 1.0614,1.2974 C 1.0345,1.2974 0.99142,1.3082 0.97306,1.3216 L 0.96782,1.3254 L 0.91759,1.2508 z"
                                   id="path4108"
                                   style="fill:#231f20;fill-opacity:1;fill-rule:nonzero;stroke:#231f20;stroke-width:0.036;stroke-linecap:butt;stroke-linejoin:miter;stroke-miterlimit:3.86400008;stroke-dasharray:none;stroke-opacity:1" />
                                <path
                                   d="M 1.5362,1.484 C 1.5128,1.491 1.4624,1.4991 1.4214,1.499 C 1.327,1.4988 1.2571,1.4376 1.2422,1.3605 C 1.2277,1.2851 1.2769,1.2222 1.3687,1.2222 C 1.3896,1.2222 1.4397,1.2297 1.4598,1.2371 L 1.4863,1.3228 C 1.4561,1.3103 1.4315,1.3114 1.4046,1.3114 C 1.3696,1.3114 1.3396,1.3338 1.3452,1.3629 C 1.3508,1.3917 1.3877,1.4144 1.4228,1.4144 C 1.4492,1.4144 1.4834,1.4156 1.5082,1.401 L 1.5362,1.484 z"
                                   id="path4110"
                                   style="fill:#231f20;fill-opacity:1;fill-rule:nonzero;stroke:#231f20;stroke-width:0.036;stroke-linecap:butt;stroke-linejoin:miter;stroke-miterlimit:3.86400008;stroke-dasharray:none;stroke-opacity:1" />
                                <path
                                   d="M 0.72599,1.495 L 0.67065,1.4151 L 0.80211,1.4152 L 0.60437,1.2308 L 0.87475,1.2308 L 0.92856,1.3124 L 0.8026,1.3124 L 1.0053,1.495 L 0.72599,1.495 z"
                                   id="path4112"
                                   style="fill:#ffffff;fill-opacity:1;fill-rule:nonzero;stroke:#ffffff;stroke-width:0.012;stroke-linecap:butt;stroke-linejoin:miter;stroke-miterlimit:3.86400008;stroke-dasharray:none;stroke-opacity:1" />
                                <path
                                   d="M 0.91759,1.2508 C 0.95099,1.2357 1.0162,1.2222 1.0567,1.2222 C 1.1263,1.2222 1.2024,1.2578 1.2145,1.3209 C 1.2231,1.3657 1.1915,1.3874 1.1437,1.3966 L 1.1181,1.4015 C 1.1095,1.4032 1.0873,1.4046 1.0892,1.4144 C 1.0913,1.4253 1.1148,1.4285 1.1251,1.4285 C 1.1502,1.4285 1.2032,1.4153 1.2211,1.4041 L 1.2657,1.4717 C 1.2371,1.4875 1.1728,1.499 1.1361,1.499 C 1.0661,1.499 0.98175,1.4642 0.96968,1.4015 C 0.96172,1.3601 1.0039,1.338 1.0483,1.3314 L 1.0711,1.3279 C 1.0814,1.3261 1.0966,1.3251 1.0943,1.3131 C 1.092,1.3012 1.0729,1.2974 1.0614,1.2974 C 1.0345,1.2974 0.99142,1.3082 0.97306,1.3216 L 0.96782,1.3254 L 0.91759,1.2508 z"
                                   id="path4114"
                                   style="fill:#ffffff;fill-opacity:1;fill-rule:nonzero;stroke:#ffffff;stroke-width:0.012;stroke-linecap:butt;stroke-linejoin:miter;stroke-miterlimit:3.86400008;stroke-dasharray:none;stroke-opacity:1" />
                                <path
                                   d="M 0.72599,1.495 L 0.67065,1.4151 L 0.80213,1.4153 C 0.80216,1.4152 0.60437,1.2308 0.60437,1.2308 L 0.87475,1.2308 L 0.92856,1.3124 L 0.8026,1.3124 L 1.0053,1.495 L 0.72599,1.495 z"
                                   id="path4116"
                                   style="fill:#176fc1;fill-opacity:1;fill-rule:nonzero;stroke:#ffffff;stroke-width:0.012;stroke-linecap:butt;stroke-linejoin:miter;stroke-miterlimit:3.86400008;stroke-dasharray:none;stroke-opacity:1" />
                                <path
                                   d="M 0.92451,1.2528 C 0.9598,1.2398 1.0224,1.227 1.0561,1.2271 C 1.1188,1.2273 1.1972,1.2616 1.2089,1.3196 C 1.2173,1.3612 1.188,1.3852 1.118,1.3965 C 1.118,1.3965 1.0794,1.4014 1.0826,1.4144 C 1.0892,1.4324 1.1088,1.4326 1.1251,1.4331 C 1.1502,1.4337 1.2014,1.4223 1.2193,1.4111 L 1.2573,1.4696 C 1.2217,1.4841 1.1706,1.4938 1.1339,1.4938 C 1.0716,1.4937 0.9865,1.4618 0.97486,1.4011 C 0.9698,1.3607 1.0086,1.3451 1.0394,1.3389 C 1.0826,1.3303 1.1007,1.3308 1.1007,1.3183 C 1.1,1.2942 1.0729,1.2924 1.0614,1.2928 C 0.99796,1.2949 0.96861,1.3187 0.96861,1.3187 L 0.92451,1.2528 z"
                                   id="path4118"
                                   style="fill:#ffffff;fill-opacity:1;fill-rule:nonzero;stroke:#231f20;stroke-width:0.004;stroke-linecap:butt;stroke-linejoin:miter;stroke-miterlimit:3.86400008;stroke-dasharray:none;stroke-opacity:1" />
                                <path
                                   d="M 1.5362,1.484 C 1.5128,1.491 1.4661,1.499 1.4258,1.499 C 1.3315,1.499 1.2571,1.4376 1.2422,1.3605 C 1.2277,1.2851 1.2769,1.2222 1.3687,1.2222 C 1.3896,1.2222 1.4397,1.2297 1.4598,1.2371 L 1.4863,1.3228 C 1.4561,1.3103 1.4315,1.3114 1.4046,1.3114 C 1.3696,1.3114 1.3396,1.3338 1.3452,1.3629 C 1.3508,1.3917 1.3877,1.4144 1.4228,1.4144 C 1.4492,1.4144 1.4834,1.4156 1.5082,1.401 L 1.5362,1.484 z"
                                   id="path4120"
                                   style="fill:#ed1c24;fill-opacity:1;fill-rule:nonzero;stroke:#ffffff;stroke-width:0.012;stroke-linecap:butt;stroke-linejoin:miter;stroke-miterlimit:3.86400008;stroke-dasharray:none;stroke-opacity:1" />
                                <path
                                   d="M 0.96034,1.4306 C 0.96036,1.4307 0.84903,1.3292 0.84903,1.3292 L 0.9466,1.3295 L 0.96465,1.3549 C 0.96465,1.3549 0.9388,1.3753 0.96034,1.4306"
                                   id="path4122"
                                   style="fill:#176fc1;fill-opacity:1;fill-rule:nonzero;stroke:none" />
                                </g>
                                </g>
                              </g>
                            </g>
                          </g>
                        </g>
                      </g>
                    </g>
                  </g>
                </g>
              </g>
            </g>
          </g>
        </g>
      </g>
    </g>
  </g>
</svg>
